:FULLY-SPECIFIED
:FORCE-ALL-JOINTS-BE-3DOF
:DEGREES
815
root 2.00642 16.5018 22.806 4.9785 2.67745 352.009
lfemur -36.6786 0.80317 3.20475
ltibia 19.7008 0 0
lfoot -9.2714 18.8441 0
ltoes 19.6496 0 0
rfemur 8.16798 4.00962 23.1576
rtibia 18.9885 0 0
rfoot -22.9042 -15.6861 0
rtoes -28.7595 0 0
lowerback -0.733523 7.20914 5.77209
upperback -0.665188 9.63564 -0.306084
thorax 0.632609 4.82615 -3.38847
lowerneck -5.3458 -1.81372 3.07103
upperneck -0.182198 -2.60759 1.62111
head 0.827201 -1.27503 -0.0659448
lclavicle 8.48074e-016 1.00645e-015 0
lhumerus -54.7047 -5.56337 91.5187
lradius 53.7793 0 0
lwrist 17.1686 0 0
lhand -8.54987 4.50147 0
lfingers 7.12502 0 0
lthumb 17.38 33.7326 0
rclavicle 8.48074e-016 1.00645e-015 0
rhumerus -28.9823 48.0059 -111.643
rradius 68.9045 0 0
rwrist -1.92828 0 0
rhand -7.85299 -21.353 0
rfingers 7.12502 0 0
rthumb 18.0466 -770.474 0
816
root 2.03683 16.5108 22.9304 4.84954 0.842248 351.923
lfemur -36.4665 0.491787 3.45519
ltibia 19.0483 0 0
lfoot -8.91528 18.3955 0
ltoes 19.7433 0 0
rfemur 8.18635 4.55153 22.9966
rtibia 18.7374 0 0
rfoot -22.6652 -15.0909 0
rtoes -28.5142 0 0
lowerback -0.678549 7.21223 5.85383
upperback -0.629348 9.63675 -0.225505
thorax 0.646748 4.8265 -3.34425
lowerneck -5.36036 -1.72034 3.14857
upperneck -0.069739 -2.49306 1.54829
head 0.859816 -1.21736 -0.100115
lclavicle 7.02041e-016 7.75421e-016 0
lhumerus -54.5566 -5.54808 91.2593
lradius 53.3558 0 0
lwrist 17.3277 0 0
lhand -8.16061 4.71709 0
lfingers 7.12502 0 0
lthumb 17.7547 33.9181 0
rclavicle 7.02041e-016 7.75421e-016 0
rhumerus -28.9073 47.5778 -111.035
rradius 68.5669 0 0
rwrist -2.11752 0 0
rhand -7.55103 -21.4675 0
rfingers 7.12502 0 0
rthumb 18.3378 -770.573 0
817
root 2.06717 16.519 23.0557 4.73299 -0.819503 351.883
lfemur -36.2401 0.21481 3.65548
ltibia 18.4677 0 0
lfoot -8.58146 17.9236 0
ltoes 19.8361 0 0
rfemur 8.11442 5.04931 22.8274
rtibia 18.5467 0 0
rfoot -22.4099 -14.5259 0
rtoes -28.2611 0 0
lowerback -0.609082 7.20283 5.91553
upperback -0.589211 9.62066 -0.152291
thorax 0.655687 4.81828 -3.29659
lowerneck -5.37483 -1.63554 3.21967
upperneck 0.0457569 -2.38971 1.48319
head 0.894017 -1.165 -0.131107
lclavicle 6.05539e-016 5.41907e-016 0
lhumerus -54.3943 -5.55488 91.0119
lradius 52.9692 0 0
lwrist 17.4812 0 0
lhand -7.77777 4.91672 0
lfingers 7.12502 0 0
lthumb 18.1231 34.0869 0
rclavicle 6.05539e-016 5.41907e-016 0
rhumerus -28.8795 47.1224 -110.406
rradius 68.2284 0 0
rwrist -2.28651 0 0
rhand -7.27697 -21.5828 0
rfingers 7.12502 0 0
rthumb 18.6021 -770.675 0
818
root 2.09735 16.5261 23.1819 4.63291 -2.29508 351.894
lfemur -35.9992 -0.0251854 3.80268
ltibia 17.9639 0 0
lfoot -8.27173 17.4285 0
ltoes 19.9278 0 0
rfemur 7.94784 5.50038 22.6501
rtibia 18.4182 0 0
rfoot -22.1388 -13.9942 0
rtoes -28.001 0 0
lowerback -0.524437 7.18026 5.95608
upperback -0.544557 9.58641 -0.086949
thorax 0.659183 4.80101 -3.24541
lowerneck -5.38914 -1.5598 3.28394
upperneck 0.164327 -2.29817 1.42631
head 0.929844 -1.11826 -0.158713
lclavicle 5.62582e-016 3.06883e-016 0
lhumerus -54.217 -5.58487 90.7783
lradius 52.6225 0 0
lwrist 17.6285 0 0
lhand -7.40199 5.09933 0
lfingers 7.12502 0 0
lthumb 18.4845 34.2381 0
rclavicle 5.62582e-016 3.06883e-016 0
rhumerus -28.9029 46.6396 -109.755
rradius 67.8888 0 0
rwrist -2.43375 0 0
rhand -7.03238 -21.6987 0
rfingers 7.12502 0 0
rthumb 18.838 -770.779 0
819
root 2.12728 16.5322 23.309 4.55336 -3.57176 351.962
lfemur -35.7437 -0.225621 3.89384
ltibia 17.5416 0 0
lfoot -7.98788 16.9098 0
ltoes 20.0185 0 0
rfemur 7.68225 5.90217 22.465
rtibia 18.3535 0 0
rfoot -21.8522 -13.4986 0
rtoes -27.7349 0 0
lowerback -0.423927 7.1438 5.97433
upperback -0.495171 9.53304 -0.029989
thorax 0.65699 4.77422 -3.19059
lowerneck -5.40321 -1.49364 3.341
upperneck 0.286007 -2.21908 1.37815
head 0.967334 -1.07742 -0.182724
lclavicle 5.77186e-016 7.13154e-017 0
lhumerus -54.024 -5.6391 90.5602
lradius 52.3182 0 0
lwrist 17.7689 0 0
lhand -7.03392 5.26389 0
lfingers 7.12502 0 0
lthumb 18.8385 34.3704 0
rclavicle 5.77186e-016 7.13154e-017 0
rhumerus -28.9815 46.129 -109.083
rradius 67.5482 0 0
rwrist -2.55777 0 0
rhand -6.8188 -21.815 0
rfingers 7.12502 0 0
rthumb 19.0441 -770.885 0
820
root 2.15686 16.537 23.4373 4.4984 -4.63682 352.093
lfemur -35.4732 -0.383919 3.92599
ltibia 17.2058 0 0
lfoot -7.73168 16.3677 0
ltoes 20.108 0 0
rfemur 7.31332 6.25212 22.2724
rtibia 18.3546 0 0
rfoot -21.5506 -13.0422 0
rtoes -27.4637 0 0
lowerback -0.306867 7.09275 5.96915
upperback -0.440834 9.45959 0.0180806
thorax 0.648863 4.73744 -3.13205
lowerneck -5.41697 -1.43753 3.39046
upperneck 0.410836 -2.15307 1.33922
head 1.00653 -1.0428 -0.202933
lclavicle 6.53367e-016 -1.63825e-016 0
lhumerus -53.8148 -5.71868 90.3593
lradius 52.0591 0 0
lwrist 17.9018 0 0
lhand -6.67417 5.40937 0
lfingers 7.12502 0 0
lthumb 19.1843 34.483 0
rclavicle 6.53367e-016 -1.63825e-016 0
rhumerus -29.1191 45.5904 -108.392
rradius 67.2065 0 0
rwrist -2.65707 0 0
rhand -6.63779 -21.9313 0
rfingers 7.12502 0 0
rthumb 19.2187 -770.994 0
821
root 2.186 16.5406 23.5666 4.4721 -5.47753 352.293
lfemur -35.1876 -0.497503 3.8962
ltibia 16.9611 0 0
lfoot -7.50492 15.8019 0
ltoes 20.1964 0 0
rfemur 6.83668 6.54766 22.0726
rtibia 18.4231 0 0
rfoot -21.2343 -12.628 0
rtoes -27.1883 0 0
lowerback -0.172572 7.02642 5.93941
upperback -0.381328 9.3651 0.0567512
thorax 0.634559 4.69018 -3.06969
lowerneck -5.43036 -1.39198 3.43192
upperneck 0.538849 -2.10077 1.31002
head 1.04746 -1.01469 -0.219131
lclavicle 7.95139e-016 -3.97569e-016 0
lhumerus -53.5888 -5.82466 90.1773
lradius 51.848 0 0
lwrist 18.0267 0 0
lhand -6.3234 5.53472 0
lfingers 7.12502 0 0
lthumb 19.5214 34.5747 0
rclavicle 7.95139e-016 -3.97569e-016 0
rhumerus -29.3198 45.0234 -107.682
rradius 66.8638 0 0
rwrist -2.73019 0 0
rhand -6.49092 -22.0473 0
rfingers 7.12502 0 0
rthumb 19.3604 -771.104 0
822
root 2.21625 16.5435 23.6978 4.42924 -6.13373 352.527
lfemur -34.8718 -0.579774 3.80273
ltibia 16.794 0 0
lfoot -7.29625 15.1822 0
ltoes 20.2884 0 0
rfemur 6.22426 6.79459 21.8555
rtibia 18.5773 0 0
rfoot -20.8818 -12.2303 0
rtoes -26.9002 0 0
lowerback -0.0146029 6.94367 5.88366
upperback -0.314375 9.24779 0.0876442
thorax 0.612791 4.63154 -3.00089
lowerneck -5.44417 -1.35575 3.46714
upperneck 0.674406 -2.06088 1.28918
head 1.09155 -0.992379 -0.232056
lclavicle 9.93427e-016 -6.54768e-016 0
lhumerus -53.3361 -5.95657 89.9913
lradius 51.6743 0 0
lwrist 18.1514 0 0
lhand -5.981 5.63877 0
lfingers 7.12502 0 0
lthumb 19.8505 34.646 0
rclavicle 9.93427e-016 -6.54768e-016 0
rhumerus -29.5734 44.4013 -106.907
rradius 66.4973 0 0
rwrist -2.77843 0 0
rhand -6.38562 -22.1757 0
rfingers 7.12502 0 0
rthumb 19.4621 -771.23 0
